<mxfile host="app.diagrams.net" agent="Mozilla/5.0 (X11; Linux x86_64; rv:134.0) Gecko/20100101 Firefox/134.0" version="26.2.14">
  <diagram name="Page-1" id="kAjYW8OmuQAgpLnSA6PZ">
    <mxGraphModel dx="2066" dy="2256" grid="1" gridSize="10" guides="1" tooltips="1" connect="1" arrows="1" fold="1" page="1" pageScale="1" pageWidth="850" pageHeight="1100" math="0" shadow="0">
      <root>
        <mxCell id="0" />
        <mxCell id="1" parent="0" />
        <mxCell id="qmR0sTXAwT7v3YOteEc--1" value="" style="rounded=0;whiteSpace=wrap;html=1;strokeColor=none;fillColor=light-dark(#99c1f1, #ededed);" vertex="1" parent="1">
          <mxGeometry x="350" y="100" width="245" height="400" as="geometry" />
        </mxCell>
        <mxCell id="qmR0sTXAwT7v3YOteEc--2" value="" style="rounded=0;whiteSpace=wrap;html=1;fillColor=none;dashed=1;" vertex="1" parent="1">
          <mxGeometry x="360" y="279" width="160" height="160" as="geometry" />
        </mxCell>
        <mxCell id="qmR0sTXAwT7v3YOteEc--3" style="edgeStyle=orthogonalEdgeStyle;rounded=0;orthogonalLoop=1;jettySize=auto;html=1;exitX=0.5;exitY=1;exitDx=0;exitDy=0;entryX=0.5;entryY=0;entryDx=0;entryDy=0;" edge="1" parent="1" source="qmR0sTXAwT7v3YOteEc--4" target="qmR0sTXAwT7v3YOteEc--6">
          <mxGeometry relative="1" as="geometry" />
        </mxCell>
        <mxCell id="qmR0sTXAwT7v3YOteEc--4" value="Power on" style="ellipse;whiteSpace=wrap;html=1;" vertex="1" parent="1">
          <mxGeometry x="395" y="-130" width="70" height="40" as="geometry" />
        </mxCell>
        <mxCell id="qmR0sTXAwT7v3YOteEc--5" style="edgeStyle=orthogonalEdgeStyle;rounded=0;orthogonalLoop=1;jettySize=auto;html=1;exitX=0.5;exitY=1;exitDx=0;exitDy=0;entryX=0.5;entryY=0;entryDx=0;entryDy=0;" edge="1" parent="1" source="qmR0sTXAwT7v3YOteEc--6" target="qmR0sTXAwT7v3YOteEc--8">
          <mxGeometry relative="1" as="geometry" />
        </mxCell>
        <mxCell id="qmR0sTXAwT7v3YOteEc--6" value="Load firmware/&lt;br&gt;bootloader" style="rounded=1;whiteSpace=wrap;html=1;fontSize=12;glass=0;strokeWidth=1;shadow=0;" vertex="1" parent="1">
          <mxGeometry x="370" y="-70" width="120" height="40" as="geometry" />
        </mxCell>
        <mxCell id="qmR0sTXAwT7v3YOteEc--7" style="edgeStyle=orthogonalEdgeStyle;rounded=0;orthogonalLoop=1;jettySize=auto;html=1;exitX=0.5;exitY=1;exitDx=0;exitDy=0;entryX=0.5;entryY=0;entryDx=0;entryDy=0;" edge="1" parent="1" source="qmR0sTXAwT7v3YOteEc--8" target="qmR0sTXAwT7v3YOteEc--10">
          <mxGeometry relative="1" as="geometry" />
        </mxCell>
        <mxCell id="qmR0sTXAwT7v3YOteEc--8" value="Load Linux kernel" style="rounded=1;whiteSpace=wrap;html=1;fontSize=12;glass=0;strokeWidth=1;shadow=0;" vertex="1" parent="1">
          <mxGeometry x="370" y="-10" width="120" height="40" as="geometry" />
        </mxCell>
        <mxCell id="qmR0sTXAwT7v3YOteEc--9" style="edgeStyle=orthogonalEdgeStyle;rounded=0;orthogonalLoop=1;jettySize=auto;html=1;exitX=0.5;exitY=1;exitDx=0;exitDy=0;entryX=0.5;entryY=0;entryDx=0;entryDy=0;" edge="1" parent="1" source="qmR0sTXAwT7v3YOteEc--10" target="qmR0sTXAwT7v3YOteEc--12">
          <mxGeometry relative="1" as="geometry" />
        </mxCell>
        <mxCell id="qmR0sTXAwT7v3YOteEc--10" value="Load RAM disk" style="rounded=1;whiteSpace=wrap;html=1;fontSize=12;glass=0;strokeWidth=1;shadow=0;" vertex="1" parent="1">
          <mxGeometry x="370" y="50" width="120" height="40" as="geometry" />
        </mxCell>
        <mxCell id="qmR0sTXAwT7v3YOteEc--11" style="edgeStyle=orthogonalEdgeStyle;rounded=0;orthogonalLoop=1;jettySize=auto;html=1;exitX=0.5;exitY=1;exitDx=0;exitDy=0;endArrow=none;startFill=0;" edge="1" parent="1" source="qmR0sTXAwT7v3YOteEc--12">
          <mxGeometry relative="1" as="geometry">
            <mxPoint x="430" y="180" as="targetPoint" />
          </mxGeometry>
        </mxCell>
        <mxCell id="qmR0sTXAwT7v3YOteEc--12" value="Launch init process" style="rounded=1;whiteSpace=wrap;html=1;fontSize=12;glass=0;strokeWidth=1;shadow=0;" vertex="1" parent="1">
          <mxGeometry x="370" y="110" width="120" height="40" as="geometry" />
        </mxCell>
        <mxCell id="qmR0sTXAwT7v3YOteEc--13" style="edgeStyle=orthogonalEdgeStyle;rounded=0;orthogonalLoop=1;jettySize=auto;html=1;exitX=0.5;exitY=1;exitDx=0;exitDy=0;endArrow=none;startFill=0;dashed=1;dashPattern=1 2;strokeWidth=2;" edge="1" parent="1">
          <mxGeometry relative="1" as="geometry">
            <mxPoint x="429.86" y="199" as="targetPoint" />
            <mxPoint x="429.86" y="183" as="sourcePoint" />
          </mxGeometry>
        </mxCell>
        <mxCell id="qmR0sTXAwT7v3YOteEc--14" style="edgeStyle=orthogonalEdgeStyle;rounded=0;orthogonalLoop=1;jettySize=auto;html=1;exitX=0.5;exitY=1;exitDx=0;exitDy=0;endArrow=classic;startFill=0;endFill=1;" edge="1" parent="1">
          <mxGeometry relative="1" as="geometry">
            <mxPoint x="429.86" y="230" as="targetPoint" />
            <mxPoint x="429.86" y="200" as="sourcePoint" />
          </mxGeometry>
        </mxCell>
        <mxCell id="qmR0sTXAwT7v3YOteEc--15" style="edgeStyle=orthogonalEdgeStyle;rounded=0;orthogonalLoop=1;jettySize=auto;html=1;exitX=0.5;exitY=1;exitDx=0;exitDy=0;entryX=0.5;entryY=0;entryDx=0;entryDy=0;" edge="1" parent="1" source="qmR0sTXAwT7v3YOteEc--16">
          <mxGeometry relative="1" as="geometry">
            <mxPoint x="430" y="290" as="targetPoint" />
          </mxGeometry>
        </mxCell>
        <mxCell id="qmR0sTXAwT7v3YOteEc--16" value="Start dracut cleanup&lt;br&gt;hook" style="rounded=1;whiteSpace=wrap;html=1;fontSize=12;glass=0;strokeWidth=1;shadow=0;" vertex="1" parent="1">
          <mxGeometry x="370" y="230" width="120" height="40" as="geometry" />
        </mxCell>
        <mxCell id="qmR0sTXAwT7v3YOteEc--17" style="edgeStyle=orthogonalEdgeStyle;rounded=0;orthogonalLoop=1;jettySize=auto;html=1;exitX=0.5;exitY=1;exitDx=0;exitDy=0;" edge="1" parent="1" source="qmR0sTXAwT7v3YOteEc--19">
          <mxGeometry relative="1" as="geometry">
            <mxPoint x="429.80952380952385" y="390" as="targetPoint" />
          </mxGeometry>
        </mxCell>
        <mxCell id="qmR0sTXAwT7v3YOteEc--18" style="edgeStyle=orthogonalEdgeStyle;rounded=0;orthogonalLoop=1;jettySize=auto;html=1;exitX=1;exitY=0.5;exitDx=0;exitDy=0;entryX=1;entryY=0.5;entryDx=0;entryDy=0;" edge="1" parent="1" source="qmR0sTXAwT7v3YOteEc--19" target="qmR0sTXAwT7v3YOteEc--25">
          <mxGeometry relative="1" as="geometry" />
        </mxCell>
        <mxCell id="qmR0sTXAwT7v3YOteEc--19" value="&lt;div&gt;wiperam&lt;/div&gt;&lt;div&gt;== skip&lt;/div&gt;" style="rhombus;whiteSpace=wrap;html=1;" vertex="1" parent="1">
          <mxGeometry x="390" y="290" width="80" height="80" as="geometry" />
        </mxCell>
        <mxCell id="qmR0sTXAwT7v3YOteEc--20" value="no" style="text;html=1;align=center;verticalAlign=middle;resizable=0;points=[];autosize=1;strokeColor=none;fillColor=none;" vertex="1" parent="1">
          <mxGeometry x="385" y="360" width="40" height="30" as="geometry" />
        </mxCell>
        <mxCell id="qmR0sTXAwT7v3YOteEc--21" style="edgeStyle=orthogonalEdgeStyle;rounded=0;orthogonalLoop=1;jettySize=auto;html=1;exitX=0.5;exitY=1;exitDx=0;exitDy=0;" edge="1" parent="1" source="qmR0sTXAwT7v3YOteEc--23">
          <mxGeometry relative="1" as="geometry">
            <mxPoint x="429.80952380952385" y="450" as="targetPoint" />
          </mxGeometry>
        </mxCell>
        <mxCell id="qmR0sTXAwT7v3YOteEc--22" style="edgeStyle=orthogonalEdgeStyle;rounded=0;orthogonalLoop=1;jettySize=auto;html=1;exitX=1;exitY=0.5;exitDx=0;exitDy=0;entryX=0.5;entryY=0;entryDx=0;entryDy=0;dashed=1;" edge="1" parent="1" source="qmR0sTXAwT7v3YOteEc--23" target="qmR0sTXAwT7v3YOteEc--35">
          <mxGeometry relative="1" as="geometry" />
        </mxCell>
        <mxCell id="qmR0sTXAwT7v3YOteEc--23" value="Run need_shutdown" style="rounded=1;whiteSpace=wrap;html=1;fontSize=12;glass=0;strokeWidth=1;shadow=0;" vertex="1" parent="1">
          <mxGeometry x="370" y="390" width="120" height="40" as="geometry" />
        </mxCell>
        <mxCell id="qmR0sTXAwT7v3YOteEc--24" style="edgeStyle=orthogonalEdgeStyle;rounded=0;orthogonalLoop=1;jettySize=auto;html=1;exitX=0.5;exitY=1;exitDx=0;exitDy=0;entryX=0.5;entryY=0;entryDx=0;entryDy=0;" edge="1" parent="1" source="qmR0sTXAwT7v3YOteEc--25" target="qmR0sTXAwT7v3YOteEc--31">
          <mxGeometry relative="1" as="geometry" />
        </mxCell>
        <mxCell id="qmR0sTXAwT7v3YOteEc--25" value="Switch to root" style="rounded=1;whiteSpace=wrap;html=1;fontSize=12;glass=0;strokeWidth=1;shadow=0;" vertex="1" parent="1">
          <mxGeometry x="370" y="450" width="120" height="40" as="geometry" />
        </mxCell>
        <mxCell id="qmR0sTXAwT7v3YOteEc--26" value="yes" style="text;html=1;align=center;verticalAlign=middle;resizable=0;points=[];autosize=1;strokeColor=none;fillColor=none;" vertex="1" parent="1">
          <mxGeometry x="470" y="300" width="40" height="30" as="geometry" />
        </mxCell>
        <mxCell id="qmR0sTXAwT7v3YOteEc--27" style="edgeStyle=orthogonalEdgeStyle;rounded=0;orthogonalLoop=1;jettySize=auto;html=1;exitX=0;exitY=0.5;exitDx=0;exitDy=0;exitPerimeter=0;entryX=0;entryY=0.5;entryDx=0;entryDy=0;endArrow=none;startFill=0;dashed=1;" edge="1" parent="1" source="qmR0sTXAwT7v3YOteEc--28" target="qmR0sTXAwT7v3YOteEc--23">
          <mxGeometry relative="1" as="geometry" />
        </mxCell>
        <mxCell id="qmR0sTXAwT7v3YOteEc--28" value="" style="strokeWidth=2;html=1;shape=mxgraph.flowchart.annotation_2;align=left;labelPosition=right;pointerEvents=1;rotation=-180;" vertex="1" parent="1">
          <mxGeometry x="305" y="375" width="45" height="70" as="geometry" />
        </mxCell>
        <mxCell id="qmR0sTXAwT7v3YOteEc--29" value="&lt;div&gt;need_shutdown will&lt;/div&gt;&lt;div&gt;create&lt;/div&gt;&lt;div&gt;/run/initramfs/.need_shutdown&lt;br&gt;&lt;/div&gt;" style="text;html=1;align=center;verticalAlign=middle;resizable=0;points=[];autosize=1;strokeColor=none;fillColor=default;" vertex="1" parent="1">
          <mxGeometry x="145" y="380" width="180" height="60" as="geometry" />
        </mxCell>
        <mxCell id="qmR0sTXAwT7v3YOteEc--30" value="Inside RAM disk" style="text;html=1;align=center;verticalAlign=middle;resizable=0;points=[];autosize=1;strokeColor=none;fillColor=none;" vertex="1" parent="1">
          <mxGeometry x="490" y="100" width="110" height="30" as="geometry" />
        </mxCell>
        <mxCell id="qmR0sTXAwT7v3YOteEc--31" value="C1" style="ellipse;whiteSpace=wrap;html=1;aspect=fixed;" vertex="1" parent="1">
          <mxGeometry x="415" y="515" width="30" height="30" as="geometry" />
        </mxCell>
        <mxCell id="qmR0sTXAwT7v3YOteEc--32" style="edgeStyle=orthogonalEdgeStyle;rounded=0;orthogonalLoop=1;jettySize=auto;html=1;exitX=0;exitY=0.5;exitDx=0;exitDy=0;exitPerimeter=0;entryX=0;entryY=0.5;entryDx=0;entryDy=0;dashed=1;endArrow=none;startFill=0;" edge="1" parent="1" source="qmR0sTXAwT7v3YOteEc--33" target="qmR0sTXAwT7v3YOteEc--2">
          <mxGeometry relative="1" as="geometry">
            <Array as="points">
              <mxPoint x="350" y="315" />
              <mxPoint x="350" y="359" />
            </Array>
          </mxGeometry>
        </mxCell>
        <mxCell id="qmR0sTXAwT7v3YOteEc--33" value="" style="strokeWidth=2;html=1;shape=mxgraph.flowchart.annotation_2;align=left;labelPosition=right;pointerEvents=1;rotation=-180;" vertex="1" parent="1">
          <mxGeometry x="300" y="280" width="45" height="70" as="geometry" />
        </mxCell>
        <mxCell id="qmR0sTXAwT7v3YOteEc--34" value="Handled by&lt;br&gt;wipe-ram-needshutdown.sh" style="text;html=1;align=center;verticalAlign=middle;resizable=0;points=[];autosize=1;strokeColor=none;fillColor=default;" vertex="1" parent="1">
          <mxGeometry x="150" y="295" width="170" height="40" as="geometry" />
        </mxCell>
        <mxCell id="qmR0sTXAwT7v3YOteEc--35" value="C4" style="ellipse;whiteSpace=wrap;html=1;aspect=fixed;" vertex="1" parent="1">
          <mxGeometry x="523.5" y="515" width="30" height="30" as="geometry" />
        </mxCell>
      </root>
    </mxGraphModel>
  </diagram>
</mxfile>
